<?xml version="1.0" encoding="utf-8"?>
<!-- Generator: Adobe Illustrator 16.0.0, SVG Export Plug-In . SVG Version: 6.00 Build 0)  -->
<!DOCTYPE svg PUBLIC "-//W3C//DTD SVG 1.1//EN" "http://www.w3.org/Graphics/SVG/1.1/DTD/svg11.dtd" [
	<!ENTITY ns_flows "http://ns.adobe.com/Flows/1.0/">
	<!ENTITY ns_extend "http://ns.adobe.com/Extensibility/1.0/">
	<!ENTITY ns_ai "http://ns.adobe.com/AdobeIllustrator/10.0/">
	<!ENTITY ns_graphs "http://ns.adobe.com/Graphs/1.0/">
]>
<svg version="1.1" id="Layer_1" xmlns:x="&ns_extend;" xmlns:i="&ns_ai;" xmlns:graph="&ns_graphs;"
	 xmlns="http://www.w3.org/2000/svg" xmlns:xlink="http://www.w3.org/1999/xlink" xmlns:a="http://ns.adobe.com/AdobeSVGViewerExtensions/3.0/"
	 x="0px" y="0px" width="140px" height="47.058px" viewBox="0 0 140 47.058" style="enable-background:new 0 0 140 47.058;"
	 xml:space="preserve">
<path style="fill-rule:evenodd;clip-rule:evenodd;fill:#FFFFFF;" d="M26.375,10.51c0,3.391-2.758,6.14-6.159,6.14
	c-3.401,0-6.16-2.749-6.16-6.14c0-3.39,2.759-6.138,6.16-6.138C23.617,4.372,26.375,7.12,26.375,10.51"/>
<path style="fill-rule:evenodd;clip-rule:evenodd;fill:#FFFFFF;" d="M38.695,10.51c0,3.391-2.758,6.14-6.161,6.14
	c-3.4,0-6.159-2.749-6.159-6.14c0-3.39,2.759-6.138,6.159-6.138C35.937,4.372,38.695,7.12,38.695,10.51"/>
<path style="fill-rule:evenodd;clip-rule:evenodd;fill:#FFFFFF;" d="M26.375,35.068c0,3.391-2.758,6.14-6.159,6.14
	c-3.401,0-6.16-2.749-6.16-6.14s2.759-6.14,6.16-6.14C23.617,28.928,26.375,31.677,26.375,35.068"/>
<path style="fill-rule:evenodd;clip-rule:evenodd;fill:#FFFFFF;" d="M38.695,35.068c0,3.391-2.758,6.14-6.161,6.14
	c-3.4,0-6.159-2.749-6.159-6.14s2.759-6.14,6.159-6.14C35.937,28.928,38.695,31.677,38.695,35.068"/>
<path style="fill-rule:evenodd;clip-rule:evenodd;fill:#FFFFFF;" d="M14.056,22.79c0,3.39-2.758,6.138-6.16,6.138
	c-3.401,0-6.158-2.748-6.158-6.138c0-3.391,2.757-6.14,6.158-6.14C11.297,16.649,14.056,19.398,14.056,22.79"/>
<path style="fill-rule:evenodd;clip-rule:evenodd;fill:#FFFFFF;" d="M26.375,22.79c0,3.39-2.758,6.138-6.159,6.138
	c-3.401,0-6.16-2.748-6.16-6.138c0-3.391,2.759-6.14,6.16-6.14C23.617,16.649,26.375,19.398,26.375,22.79"/>
<path style="fill-rule:evenodd;clip-rule:evenodd;fill:#FFFFFF;" d="M84.397,17.667c-0.666,0-1.293,0.123-1.881,0.368
	c-0.588,0.244-1.119,0.602-1.597,1.074v-1.224h-1.887l-0.004,13.437h1.867l0.004-4.67c0.503,0.489,1.054,0.854,1.654,1.1
	c0.6,0.244,1.252,0.367,1.957,0.367c0.791,0,1.496-0.125,2.118-0.377c0.616-0.25,1.187-0.638,1.711-1.164
	c0.481-0.489,0.853-1.048,1.11-1.677c0.259-0.629,0.388-1.291,0.388-1.985c0-1.504-0.518-2.755-1.548-3.753
	C87.262,18.167,85.963,17.667,84.397,17.667 M86.85,25.369c-0.697,0.667-1.535,1.001-2.509,1.001c-0.956,0-1.777-0.347-2.464-1.041
	c-0.688-0.696-1.033-1.538-1.033-2.521c0-0.918,0.351-1.72,1.052-2.407c0.7-0.685,1.51-1.028,2.427-1.028
	c0.999,0,1.844,0.341,2.538,1.024c0.689,0.683,1.035,1.529,1.035,2.538C87.896,23.891,87.548,24.702,86.85,25.369 M59.576,19.11
	c-0.521-0.508-1.104-0.892-1.749-1.151c-0.643-0.261-1.343-0.389-2.097-0.389c-0.704,0-1.383,0.144-2.036,0.434
	c-0.655,0.289-1.241,0.703-1.763,1.242c-0.485,0.49-0.852,1.041-1.099,1.653c-0.247,0.614-0.373,1.275-0.373,1.982
	c0,0.676,0.138,1.34,0.411,1.988c0.274,0.652,0.652,1.221,1.137,1.71c0.509,0.512,1.084,0.903,1.724,1.164
	c0.642,0.263,1.341,0.396,2.103,0.396c0.74,0,1.441-0.145,2.097-0.432c0.657-0.287,1.249-0.709,1.778-1.265
	c0.459-0.483,0.815-1.048,1.07-1.695c0.255-0.647,0.381-1.312,0.381-1.995c0-0.67-0.136-1.32-0.41-1.948
	C60.478,20.178,60.085,19.612,59.576,19.11 M58.25,25.35c-0.65,0.669-1.455,1.002-2.417,1.002c-0.981,0-1.799-0.332-2.457-0.998
	c-0.656-0.663-0.984-1.495-0.984-2.491c0-1.004,0.328-1.839,0.984-2.507c0.658-0.668,1.469-1.002,2.437-1.002
	c0.975,0,1.787,0.33,2.437,0.989c0.652,0.657,0.978,1.492,0.978,2.502C59.229,23.847,58.902,24.684,58.25,25.35 M44.049,19.373
	c0.715,0,1.331,0.151,1.847,0.453c0.516,0.301,0.936,0.758,1.263,1.368h2.046c-0.396-1.141-1.031-2.027-1.904-2.659
	c-0.874-0.632-1.905-0.949-3.092-0.949c-0.762,0-1.474,0.144-2.141,0.427c-0.666,0.285-1.267,0.701-1.801,1.25
	c-0.484,0.502-0.849,1.056-1.098,1.665c-0.249,0.606-0.372,1.258-0.372,1.953c0,0.676,0.136,1.34,0.411,1.988
	c0.272,0.652,0.65,1.221,1.135,1.71c0.509,0.512,1.077,0.898,1.706,1.155c0.628,0.257,1.33,0.386,2.103,0.386
	c1.225,0,2.266-0.31,3.121-0.929c0.854-0.621,1.498-1.531,1.932-2.733H47.16c-0.296,0.604-0.707,1.071-1.236,1.399
	c-0.527,0.329-1.119,0.495-1.771,0.495c-0.975,0-1.79-0.332-2.442-0.998c-0.655-0.663-0.981-1.495-0.981-2.491
	c0-0.985,0.322-1.812,0.967-2.484C42.339,19.707,43.125,19.373,44.049,19.373 M73.207,17.723c-0.763,0-1.408,0.142-1.938,0.426
	c-0.528,0.285-0.954,0.717-1.276,1.297c-0.318-0.592-0.728-1.027-1.231-1.306c-0.501-0.278-1.127-0.417-1.879-0.417
	c-0.557,0-1.053,0.111-1.49,0.331c-0.434,0.22-0.823,0.554-1.168,1.003v-1.171h-1.66v9.971h1.772v-5.104
	c0-1.159,0.191-2.016,0.573-2.569c0.381-0.553,0.973-0.83,1.775-0.83c0.775,0,1.342,0.275,1.699,0.826
	c0.357,0.549,0.534,1.432,0.534,2.646v5.031h1.811v-5.212c0-1.191,0.177-2.036,0.53-2.537c0.354-0.502,0.934-0.754,1.742-0.754
	c0.693,0,1.235,0.237,1.622,0.708c0.39,0.471,0.584,1.132,0.584,1.984v5.811h1.877v-6.091c0-1.227-0.353-2.207-1.059-2.942
	C75.319,18.091,74.381,17.723,73.207,17.723 M129.142,19.091c-0.49-0.489-1.035-0.853-1.632-1.095
	c-0.598-0.242-1.251-0.362-1.96-0.362c-0.792-0.001-1.497,0.123-2.117,0.375c-0.618,0.25-1.191,0.638-1.711,1.164
	c-0.478,0.478-0.845,1.03-1.105,1.659c-0.256,0.629-0.385,1.293-0.385,1.994c0,1.505,0.515,2.758,1.547,3.758
	c1.03,1,2.324,1.5,3.884,1.5c0.665,0,1.294-0.123,1.881-0.368c0.588-0.244,1.12-0.604,1.599-1.083v1.225h1.886v-9.971h-1.886V19.091
	z M128.185,25.341c-0.701,0.688-1.511,1.028-2.429,1.028c-1.004,0-1.855-0.34-2.55-1.023c-0.695-0.684-1.041-1.528-1.041-2.539
	c0-0.96,0.346-1.773,1.041-2.437c0.694-0.666,1.532-0.998,2.513-0.998c0.955,0,1.779,0.349,2.475,1.046
	c0.695,0.698,1.042,1.536,1.042,2.516C129.235,23.854,128.885,24.657,128.185,25.341 M135.985,18.054
	c-0.398,0.214-0.753,0.543-1.061,0.983v-1.151h-1.752v9.971h1.864v-5.548c0-0.918,0.182-1.584,0.543-1.999
	c0.36-0.413,0.959-0.65,1.797-0.71v-1.877C136.849,17.729,136.385,17.84,135.985,18.054 M116.949,22.01
	c-0.163-0.06-0.386-0.141-0.668-0.244c-1.005-0.357-1.508-0.813-1.508-1.369c0-0.326,0.112-0.599,0.333-0.82
	c0.225-0.221,0.501-0.331,0.835-0.331c0.371,0,0.666,0.104,0.887,0.309c0.22,0.204,0.346,0.491,0.377,0.861h1.791
	c-0.05-0.901-0.336-1.601-0.857-2.099s-1.226-0.747-2.112-0.747c-0.849,0-1.565,0.284-2.155,0.851
	c-0.587,0.569-0.88,1.258-0.88,2.067c0,0.472,0.088,0.886,0.265,1.246c0.175,0.36,0.448,0.681,0.817,0.965
	c0.202,0.158,0.671,0.369,1.407,0.635c0.274,0.095,0.49,0.175,0.641,0.236c0.439,0.168,0.759,0.374,0.958,0.616
	c0.196,0.24,0.297,0.538,0.297,0.888c0,0.398-0.141,0.726-0.421,0.983c-0.279,0.257-0.637,0.386-1.069,0.386
	c-0.459,0-0.841-0.17-1.146-0.513c-0.305-0.341-0.458-0.773-0.458-1.301h-1.752c0.057,1.083,0.38,1.935,0.97,2.558
	c0.592,0.621,1.368,0.933,2.33,0.933c0.954,0,1.746-0.295,2.375-0.888c0.628-0.593,0.942-1.336,0.942-2.231
	c0-0.768-0.166-1.381-0.503-1.839C118.308,22.702,117.742,22.318,116.949,22.01 M100.407,19.499
	c-0.511-0.493-1.018-0.88-1.518-1.165c-0.498-0.283-1.023-0.482-1.57-0.599c-0.896-0.17-1.772-0.133-2.626,0.11
	s-1.603,0.674-2.248,1.293c-0.541,0.522-0.939,1.101-1.194,1.735c-0.257,0.634-0.366,1.319-0.329,2.054
	c0.025,0.683,0.176,1.325,0.447,1.926c0.274,0.6,0.669,1.147,1.185,1.644c0.498,0.479,1.082,0.854,1.754,1.127
	c0.67,0.274,1.356,0.42,2.058,0.437c0.748,0.017,1.441-0.098,2.081-0.348c0.508-0.194,0.984-0.48,1.432-0.85v-2.585
	c-0.001,0.035-0.002,0.054-0.002,0.062c-0.002-0.031-0.011-0.169-0.093-0.045c-0.315,0.477-0.439,0.584-0.876,1.003
	c-0.609,0.587-1.325,0.908-2.147,0.97c-0.821,0.06-1.595-0.153-2.319-0.637l6.172-5.935L100.407,19.499z M93.294,24.452
	c-0.427-0.718-0.599-1.444-0.514-2.179c0.083-0.736,0.416-1.38,0.993-1.935c0.564-0.543,1.214-0.85,1.95-0.919
	c0.733-0.071,1.487,0.105,2.256,0.527L93.294,24.452z M106.844,17.723c-0.603,0-1.141,0.105-1.607,0.313
	c-0.469,0.208-0.896,0.537-1.287,0.984v-1.134h-1.79v9.971h1.866v-4.531c0-1.386,0.208-2.377,0.626-2.978s1.092-0.902,2.022-0.902
	c0.854,0,1.486,0.255,1.895,0.766c0.41,0.511,0.614,1.294,0.614,2.351v5.294h1.875v-5.683c0-1.432-0.361-2.533-1.088-3.299
	C109.243,18.107,108.202,17.723,106.844,17.723"/>
<path style="fill:#FFFFFF;" d="M84.397,17.667c-0.666,0-1.293,0.123-1.881,0.368c-0.588,0.244-1.119,0.602-1.597,1.074v-1.224
	h-1.887l-0.004,13.437h1.867l0.004-4.67c0.503,0.489,1.054,0.854,1.654,1.1c0.6,0.244,1.252,0.367,1.957,0.367
	c0.791,0,1.496-0.125,2.118-0.377c0.616-0.25,1.187-0.638,1.711-1.164c0.481-0.489,0.853-1.048,1.11-1.677
	c0.259-0.629,0.388-1.291,0.388-1.985c0-1.504-0.518-2.755-1.548-3.753C87.262,18.167,85.963,17.667,84.397,17.667z M86.85,25.369
	c-0.697,0.667-1.535,1.001-2.509,1.001c-0.956,0-1.777-0.347-2.464-1.041c-0.688-0.696-1.033-1.538-1.033-2.521
	c0-0.918,0.351-1.72,1.052-2.407c0.7-0.685,1.51-1.028,2.427-1.028c0.999,0,1.844,0.341,2.538,1.024
	c0.689,0.683,1.035,1.529,1.035,2.538C87.896,23.891,87.548,24.702,86.85,25.369z M59.576,19.11
	c-0.521-0.508-1.104-0.892-1.749-1.151c-0.643-0.261-1.343-0.389-2.097-0.389c-0.704,0-1.383,0.144-2.036,0.434
	c-0.655,0.289-1.241,0.703-1.763,1.242c-0.485,0.49-0.852,1.041-1.099,1.653c-0.247,0.614-0.373,1.275-0.373,1.982
	c0,0.676,0.138,1.34,0.411,1.988c0.274,0.652,0.652,1.221,1.137,1.71c0.509,0.512,1.084,0.903,1.724,1.164
	c0.642,0.263,1.341,0.396,2.103,0.396c0.74,0,1.441-0.145,2.097-0.432c0.657-0.287,1.249-0.709,1.778-1.265
	c0.459-0.483,0.815-1.048,1.07-1.695c0.255-0.647,0.381-1.312,0.381-1.995c0-0.67-0.136-1.32-0.41-1.948
	C60.478,20.178,60.085,19.612,59.576,19.11z M58.25,25.35c-0.65,0.669-1.455,1.002-2.417,1.002c-0.981,0-1.799-0.332-2.457-0.998
	c-0.656-0.663-0.984-1.495-0.984-2.491c0-1.004,0.328-1.839,0.984-2.507c0.658-0.668,1.469-1.002,2.437-1.002
	c0.975,0,1.787,0.33,2.437,0.989c0.652,0.657,0.978,1.492,0.978,2.502C59.229,23.847,58.902,24.684,58.25,25.35z M44.049,19.373
	c0.715,0,1.331,0.151,1.847,0.453c0.516,0.301,0.936,0.758,1.263,1.368h2.046c-0.396-1.141-1.031-2.027-1.904-2.659
	c-0.874-0.632-1.905-0.949-3.092-0.949c-0.762,0-1.474,0.144-2.141,0.427c-0.666,0.285-1.267,0.701-1.801,1.25
	c-0.484,0.502-0.849,1.056-1.098,1.665c-0.249,0.606-0.372,1.258-0.372,1.953c0,0.676,0.136,1.34,0.411,1.988
	c0.272,0.652,0.65,1.221,1.135,1.71c0.509,0.512,1.077,0.898,1.706,1.155c0.628,0.257,1.33,0.386,2.103,0.386
	c1.225,0,2.266-0.31,3.121-0.929c0.854-0.621,1.498-1.531,1.932-2.733H47.16c-0.296,0.604-0.707,1.071-1.236,1.399
	c-0.527,0.329-1.119,0.495-1.771,0.495c-0.975,0-1.79-0.332-2.442-0.998c-0.655-0.663-0.981-1.495-0.981-2.491
	c0-0.985,0.322-1.812,0.967-2.484C42.339,19.707,43.125,19.373,44.049,19.373z M73.207,17.723c-0.763,0-1.408,0.142-1.938,0.426
	c-0.528,0.285-0.954,0.717-1.276,1.297c-0.318-0.592-0.728-1.027-1.231-1.306c-0.501-0.278-1.127-0.417-1.879-0.417
	c-0.557,0-1.053,0.111-1.49,0.331c-0.434,0.22-0.823,0.554-1.168,1.003v-1.171h-1.66v9.971h1.772v-5.104
	c0-1.159,0.191-2.016,0.573-2.569c0.381-0.553,0.973-0.83,1.775-0.83c0.775,0,1.342,0.275,1.699,0.826
	c0.357,0.549,0.534,1.432,0.534,2.646v5.031h1.811v-5.212c0-1.191,0.177-2.036,0.53-2.537c0.354-0.502,0.934-0.754,1.742-0.754
	c0.693,0,1.235,0.237,1.622,0.708c0.39,0.471,0.584,1.132,0.584,1.984v5.811h1.877v-6.091c0-1.227-0.353-2.207-1.059-2.942
	C75.319,18.091,74.381,17.723,73.207,17.723z M129.142,19.091c-0.49-0.489-1.035-0.853-1.632-1.095
	c-0.598-0.242-1.251-0.362-1.96-0.362c-0.792-0.001-1.497,0.123-2.117,0.375c-0.618,0.25-1.191,0.638-1.711,1.164
	c-0.478,0.478-0.845,1.03-1.105,1.659c-0.256,0.629-0.385,1.293-0.385,1.994c0,1.505,0.515,2.758,1.547,3.758
	c1.03,1,2.324,1.5,3.884,1.5c0.665,0,1.294-0.123,1.881-0.368c0.588-0.244,1.12-0.604,1.599-1.083v1.225h1.886v-9.971h-1.886V19.091
	z M128.185,25.341c-0.701,0.688-1.511,1.028-2.429,1.028c-1.004,0-1.855-0.34-2.55-1.023c-0.695-0.684-1.041-1.528-1.041-2.539
	c0-0.96,0.346-1.773,1.041-2.437c0.694-0.666,1.532-0.998,2.513-0.998c0.955,0,1.779,0.349,2.475,1.046
	c0.695,0.698,1.042,1.536,1.042,2.516C129.235,23.854,128.885,24.657,128.185,25.341z M135.985,18.054
	c-0.398,0.214-0.753,0.543-1.061,0.983v-1.151h-1.752v9.971h1.864v-5.548c0-0.918,0.182-1.584,0.543-1.999
	c0.36-0.413,0.959-0.65,1.797-0.71v-1.877C136.849,17.729,136.385,17.84,135.985,18.054z M116.949,22.01
	c-0.163-0.06-0.386-0.141-0.668-0.244c-1.005-0.357-1.508-0.813-1.508-1.369c0-0.326,0.112-0.599,0.333-0.82
	c0.225-0.221,0.501-0.331,0.835-0.331c0.371,0,0.666,0.104,0.887,0.309c0.22,0.204,0.346,0.491,0.377,0.861h1.791
	c-0.05-0.901-0.336-1.601-0.857-2.099s-1.226-0.747-2.112-0.747c-0.849,0-1.565,0.284-2.155,0.851
	c-0.587,0.569-0.88,1.258-0.88,2.067c0,0.472,0.088,0.886,0.265,1.246c0.175,0.36,0.448,0.681,0.817,0.965
	c0.202,0.158,0.671,0.369,1.407,0.635c0.274,0.095,0.49,0.175,0.641,0.236c0.439,0.168,0.759,0.374,0.958,0.616
	c0.196,0.24,0.297,0.538,0.297,0.888c0,0.398-0.141,0.726-0.421,0.983c-0.279,0.257-0.637,0.386-1.069,0.386
	c-0.459,0-0.841-0.17-1.146-0.513c-0.305-0.341-0.458-0.773-0.458-1.301h-1.752c0.057,1.083,0.38,1.935,0.97,2.558
	c0.592,0.621,1.368,0.933,2.33,0.933c0.954,0,1.746-0.295,2.375-0.888c0.628-0.593,0.942-1.336,0.942-2.231
	c0-0.768-0.166-1.381-0.503-1.839C118.308,22.702,117.742,22.318,116.949,22.01z M100.407,19.499
	c-0.511-0.493-1.018-0.88-1.518-1.165c-0.498-0.283-1.023-0.482-1.57-0.599c-0.896-0.17-1.772-0.133-2.626,0.11
	s-1.603,0.674-2.248,1.293c-0.541,0.522-0.939,1.101-1.194,1.735c-0.257,0.634-0.366,1.319-0.329,2.054
	c0.025,0.683,0.176,1.325,0.447,1.926c0.274,0.6,0.669,1.147,1.185,1.644c0.498,0.479,1.082,0.854,1.754,1.127
	c0.67,0.274,1.356,0.42,2.058,0.437c0.748,0.017,1.441-0.098,2.081-0.348c0.508-0.194,0.984-0.48,1.432-0.85v-2.585
	c-0.001,0.035-0.002,0.054-0.002,0.062c-0.002-0.031-0.011-0.169-0.093-0.045c-0.315,0.477-0.439,0.584-0.876,1.003
	c-0.609,0.587-1.325,0.908-2.147,0.97c-0.821,0.06-1.595-0.153-2.319-0.637l6.172-5.935L100.407,19.499z M93.294,24.452
	c-0.427-0.718-0.599-1.444-0.514-2.179c0.083-0.736,0.416-1.38,0.993-1.935c0.564-0.543,1.214-0.85,1.95-0.919
	c0.733-0.071,1.487,0.105,2.256,0.527L93.294,24.452z M106.844,17.723c-0.603,0-1.141,0.105-1.607,0.313
	c-0.469,0.208-0.896,0.537-1.287,0.984v-1.134h-1.79v9.971h1.866v-4.531c0-1.386,0.208-2.377,0.626-2.978s1.092-0.902,2.022-0.902
	c0.854,0,1.486,0.255,1.895,0.766c0.41,0.511,0.614,1.294,0.614,2.351v5.294h1.875v-5.683c0-1.432-0.361-2.533-1.088-3.299
	C109.243,18.107,108.202,17.723,106.844,17.723z"/>
</svg>
